<svg width="297" height="210" viewBox="0 0 297 210" fill="none" xmlns="http://www.w3.org/2000/svg">
<path fill-rule="evenodd" clip-rule="evenodd" d="M56.9539 109.214C58.1514 108.635 59.3677 107.489 60.426 106.655C61.3457 105.93 62.7137 104.662 63.7693 104.113L63.8175 93.9997C63.7 93.5328 59.6831 90.5141 58.8244 89.8583C58.1872 89.3717 57.7511 88.9021 57.0625 88.5423L56.9539 109.214Z" fill="#FF8800"/>
<path fill-rule="evenodd" clip-rule="evenodd" d="M65.5677 102.552C66.6272 102.023 69.7356 99.3864 70.9858 98.4173C71.82 97.7705 72.3214 97.8101 72.3214 96.5921V87.9505C72.3214 86.7198 70.8651 85.9859 69.1874 84.682C67.9788 83.7425 66.7601 82.5997 65.5711 81.9712L65.5677 102.552Z" fill="#FF8800"/>
<path fill-rule="evenodd" clip-rule="evenodd" d="M74.0729 95.8236L78.8243 92.2138C81.5486 89.9591 80.8277 91.2858 80.8277 86.0061C80.8277 84.114 80.831 82.2216 80.8259 80.3294C79.1478 79.3993 75.3966 75.8292 74.1071 75.2241L74.0729 95.8236Z" fill="#FF8800"/>
<path fill-rule="evenodd" clip-rule="evenodd" d="M56.9539 109.214C56.9861 109.258 57.0502 109.259 57.0685 109.329C57.2701 110.106 56.8233 109.184 57.7908 109.914L63.7406 114.501L63.7693 104.113C62.7137 104.662 61.3457 105.93 60.426 106.655C59.3677 107.489 58.1514 108.635 56.9539 109.214Z" fill="#FFD29E"/>
<path fill-rule="evenodd" clip-rule="evenodd" d="M80.9141 100.786C79.7166 101.365 78.5002 102.511 77.442 103.345C76.5223 104.07 75.1543 105.338 74.0986 105.887L74.0504 116C74.1679 116.467 78.1849 119.486 79.0436 120.142C79.6808 120.628 80.1169 121.098 80.8054 121.458L80.9141 100.786Z" fill="#FF8800"/>
<path fill-rule="evenodd" clip-rule="evenodd" d="M72.3002 107.448C71.2407 107.977 68.1323 110.614 66.8822 111.583C66.048 112.23 65.5465 112.19 65.5465 113.408V122.05C65.5465 123.28 67.0029 124.014 68.6805 125.318C69.8892 126.258 71.1078 127.401 72.2969 128.029L72.3002 107.448Z" fill="#FF8800"/>
<path fill-rule="evenodd" clip-rule="evenodd" d="M63.7951 114.177L59.0436 117.786C56.3194 120.041 57.0403 118.714 57.0403 123.994C57.0403 125.886 57.0369 127.778 57.0421 129.671C58.7201 130.601 62.4714 134.171 63.7609 134.776L63.7951 114.177Z" fill="#FF8800"/>
<path fill-rule="evenodd" clip-rule="evenodd" d="M80.9141 100.786C80.8819 100.743 80.8178 100.741 80.7995 100.671C80.5978 99.8945 81.0447 100.816 80.0772 100.086L74.1274 95.4992L74.0986 105.887C75.1543 105.338 76.5223 104.07 77.442 103.345C78.5002 102.511 79.7166 101.365 80.9141 100.786Z" fill="#FFD29E"/>
<path d="M72.1242 105.073H71.2554L71.2524 104.953L71.2435 104.835L71.2286 104.718L71.2082 104.604L71.1823 104.492L71.151 104.381L71.1146 104.274L71.0729 104.168L71.0266 104.065L70.9754 103.966L70.9193 103.868L70.859 103.774L70.7941 103.683L70.7251 103.595L70.6521 103.511L70.5751 103.43L70.4943 103.353L70.4101 103.28L70.3222 103.211L70.2312 103.146L70.1371 103.086L70.0397 103.03L69.94 102.979L69.8373 102.932L69.7318 102.891L69.6243 102.854L69.5143 102.823L69.4022 102.797L69.2879 102.777L69.1718 102.762L69.0539 102.753L68.934 102.75V101.884L69.0977 101.888L69.2598 101.9L69.4195 101.921L69.5766 101.949L69.7311 101.984L69.8827 102.027L70.0312 102.077L70.1761 102.135L70.3176 102.199L70.4555 102.269L70.5889 102.346L70.7184 102.429L70.8434 102.518L70.9639 102.612L71.0795 102.713L71.1901 102.818L71.2957 102.929L71.3959 103.044L71.4905 103.165L71.5794 103.29L71.6623 103.419L71.739 103.553L71.8096 103.69L71.8735 103.832L71.9306 103.977L71.9808 104.125L72.0237 104.276L72.0594 104.431L72.0874 104.588L72.1077 104.747L72.12 104.909L72.1242 105.073ZM68.934 108.262V107.395L69.0539 107.392L69.1718 107.383L69.2879 107.369L69.4022 107.348L69.5143 107.322L69.6243 107.291L69.7318 107.255L69.8373 107.213L69.94 107.167L70.0397 107.116L70.1371 107.06L70.2312 106.999L70.3222 106.934L70.4101 106.865L70.4943 106.792L70.5751 106.716L70.6521 106.635L70.7251 106.55L70.7941 106.463L70.859 106.371L70.9193 106.277L70.9754 106.18L71.0266 106.08L71.0729 105.977L71.1146 105.872L71.151 105.764L71.1823 105.654L71.2082 105.542L71.2286 105.427L71.2435 105.311L71.2524 105.193L71.2554 105.073H72.1242L72.12 105.236L72.1077 105.398L72.0874 105.558L72.0594 105.715L72.0237 105.869L71.9808 106.02L71.9306 106.169L71.8735 106.314L71.8096 106.455L71.739 106.593L71.6623 106.726L71.5794 106.856L71.4905 106.981L71.3959 107.101L71.2957 107.217L71.1901 107.327L71.0795 107.433L70.9639 107.533L70.8434 107.628L70.7184 107.717L70.5889 107.8L70.4555 107.876L70.3176 107.947L70.1761 108.011L70.0312 108.068L69.8827 108.118L69.7311 108.161L69.5766 108.197L69.4195 108.225L69.2598 108.245L69.0977 108.258L68.934 108.262ZM65.7438 105.073H66.6126L66.6156 105.193L66.6245 105.311L66.6394 105.427L66.6598 105.542L66.6857 105.654L66.717 105.764L66.7534 105.872L66.7951 105.977L66.8414 106.08L66.8926 106.18L66.9487 106.277L67.009 106.371L67.0739 106.463L67.1429 106.55L67.216 106.635L67.2928 106.716L67.3736 106.792L67.4579 106.865L67.5458 106.934L67.6368 106.999L67.7309 107.06L67.8283 107.116L67.928 107.167L68.0307 107.213L68.1362 107.255L68.2437 107.291L68.3537 107.322L68.4658 107.348L68.5801 107.369L68.6962 107.383L68.8141 107.392L68.934 107.395V108.262L68.7703 108.258L68.6082 108.245L68.4485 108.225L68.2914 108.197L68.1369 108.161L67.9853 108.118L67.8368 108.068L67.6919 108.011L67.5504 107.947L67.4125 107.876L67.2791 107.8L67.1496 107.717L67.0246 107.628L66.9041 107.533L66.7886 107.433L66.6778 107.327L66.5722 107.217L66.4721 107.101L66.3775 106.981L66.2886 106.856L66.2057 106.726L66.129 106.593L66.0584 106.455L65.9945 106.314L65.9374 106.169L65.8872 106.02L65.8443 105.869L65.8086 105.715L65.7806 105.558L65.7603 105.398L65.748 105.236L65.7438 105.073ZM68.934 101.884V102.75L68.8141 102.753L68.6962 102.762L68.5801 102.777L68.4658 102.797L68.3537 102.823L68.2437 102.854L68.1362 102.891L68.0307 102.932L67.928 102.979L67.8283 103.03L67.7309 103.086L67.6368 103.146L67.5458 103.211L67.4579 103.28L67.3736 103.353L67.2928 103.43L67.216 103.511L67.1429 103.595L67.0739 103.683L67.009 103.774L66.9487 103.868L66.8926 103.966L66.8414 104.065L66.7951 104.168L66.7534 104.274L66.717 104.381L66.6857 104.492L66.6598 104.604L66.6394 104.718L66.6245 104.835L66.6156 104.953L66.6126 105.073H65.7438L65.748 104.909L65.7603 104.747L65.7806 104.588L65.8086 104.431L65.8443 104.276L65.8872 104.125L65.9374 103.977L65.9945 103.832L66.0584 103.69L66.129 103.553L66.2057 103.419L66.2886 103.29L66.3775 103.165L66.4721 103.044L66.5722 102.929L66.6778 102.818L66.7886 102.713L66.9041 102.612L67.0246 102.518L67.1496 102.429L67.2791 102.346L67.4125 102.269L67.5504 102.199L67.6919 102.135L67.8368 102.077L67.9853 102.027L68.1369 101.984L68.2914 101.949L68.4485 101.921L68.6082 101.9L68.7703 101.888L68.934 101.884Z" fill="#FFD29E"/>
<path d="M102.793 92.6563V91.0744H90.9292V108.376H92.7583V101.035H101.706V99.4534H92.7583V92.6563H102.793Z" fill="#FFD29E"/>
<path d="M106.575 108.376H108.404V91.0744H106.575V108.376Z" fill="#FFD29E"/>
<path d="M127.856 108.376L123.63 102.444C126.151 101.628 127.584 99.7253 127.584 97.0064C127.584 93.2989 124.915 91.0744 120.515 91.0744H114.04V108.376H115.869V102.889H120.515C121.01 102.889 121.455 102.864 121.9 102.815L125.854 108.376H127.856ZM120.466 101.332H115.869V92.6563H120.466C123.926 92.6563 125.755 94.2381 125.755 97.0064C125.755 99.7253 123.926 101.332 120.466 101.332Z" fill="#FFD29E"/>
<path d="M136.68 108.524C141.104 108.524 143.131 106.349 143.131 103.804C143.131 97.5008 132.478 100.368 132.478 95.6223C132.478 93.8921 133.887 92.4832 137.051 92.4832C138.583 92.4832 140.314 92.9529 141.797 93.9168L142.415 92.4585C141.03 91.4946 139.004 90.9261 137.051 90.9261C132.651 90.9261 130.674 93.1259 130.674 95.6717C130.674 102.073 141.327 99.1568 141.327 103.902C141.327 105.608 139.918 106.967 136.68 106.967C134.406 106.967 132.206 106.077 130.971 104.866L130.254 106.275C131.539 107.61 134.085 108.524 136.68 108.524Z" fill="#FFD29E"/>
<path d="M150.225 108.376H152.054V92.6563H158.134V91.0744H144.145V92.6563H150.225V108.376Z" fill="#FFD29E"/>
<path d="M165.549 108.524C169.974 108.524 172.001 106.349 172.001 103.804C172.001 97.5008 161.348 100.368 161.348 95.6223C161.348 93.8921 162.756 92.4832 165.92 92.4832C167.453 92.4832 169.183 92.9529 170.666 93.9168L171.284 92.4585C169.9 91.4946 167.873 90.9261 165.92 90.9261C161.521 90.9261 159.543 93.1259 159.543 95.6717C159.543 102.073 170.196 99.1568 170.196 103.902C170.196 105.608 168.787 106.967 165.549 106.967C163.275 106.967 161.076 106.077 159.84 104.866L159.123 106.275C160.408 107.61 162.954 108.524 165.549 108.524Z" fill="#FFD29E"/>
<path d="M177.809 106.794V100.368H186.757V98.8108H177.809V92.6563H187.844V91.0744H175.98V108.376H188.215V106.794H177.809Z" fill="#FFD29E"/>
<path d="M205.171 91.0744V105.114L194.023 91.0744H192.516V108.376H194.345V94.337L205.467 108.376H206.975V91.0744H205.171Z" fill="#FFD29E"/>
<path d="M217.381 108.524C221.805 108.524 223.832 106.349 223.832 103.804C223.832 97.5008 213.179 100.368 213.179 95.6223C213.179 93.8921 214.588 92.4832 217.752 92.4832C219.284 92.4832 221.014 92.9529 222.497 93.9168L223.115 92.4585C221.731 91.4946 219.704 90.9261 217.752 90.9261C213.352 90.9261 211.375 93.1259 211.375 95.6717C211.375 102.073 222.028 99.1568 222.028 103.902C222.028 105.608 220.619 106.967 217.381 106.967C215.107 106.967 212.907 106.077 211.671 104.866L210.954 106.275C212.24 107.61 214.785 108.524 217.381 108.524Z" fill="#FFD29E"/>
<path d="M229.64 106.794V100.368H238.588V98.8108H229.64V92.6563H239.675V91.0744H227.811V108.376H240.046V106.794H229.64Z" fill="#FFD29E"/>
</svg>
